<svg xmlns="http://www.w3.org/2000/svg" version="1.1" xmlns:xlink="http://www.w3.org/1999/xlink" width="512" height="512" x="0" y="0" viewBox="0 0 128 128" style="enable-background:new 0 0 512 512" xml:space="preserve"><g><path d="M24.246 88.506a8.847 8.847 0 1 0 8.847 8.847 8.857 8.857 0 0 0-8.847-8.847zm0 14.194a5.347 5.347 0 1 1 5.347-5.347 5.353 5.353 0 0 1-5.347 5.347z" fill="#ffffff" opacity="1" data-original="#000000"></path><path d="M103.885 79.775A23.97 23.97 0 0 0 91.4 83.266L69.75 61.615v-14.1a23.724 23.724 0 0 0 7.286-3.132 24.114 24.114 0 1 0-27.179-.761 23.742 23.742 0 0 0 8.393 3.893v14.1L36.6 83.266a24.121 24.121 0 1 0 8.133 8.13L64 72.129 83.268 91.4a24.106 24.106 0 1 0 20.617-11.622zM66.132 44.6a20.459 20.459 0 0 1-13.5-3.311v-4.338a3.924 3.924 0 0 1 3.92-3.92h15.153a3.924 3.924 0 0 1 3.92 3.92v4.156a20.188 20.188 0 0 1-9.493 3.493zM43.39 24.11a20.61 20.61 0 1 1 35.735 14v-1.159a7.428 7.428 0 0 0-7.42-7.42H56.557a7.428 7.428 0 0 0-7.42 7.42v1.427A20.492 20.492 0 0 1 43.39 24.11zM24.115 124.5a20.309 20.309 0 0 1-11.363-3.433v-4.335a3.924 3.924 0 0 1 3.92-3.92H31.82a3.924 3.924 0 0 1 3.92 3.92v4.154a20.273 20.273 0 0 1-11.625 3.614zm15.125-6.609v-1.159a7.428 7.428 0 0 0-7.42-7.42H16.672a7.428 7.428 0 0 0-7.42 7.42v1.426a20.6 20.6 0 1 1 29.988-.267zM85.325 88.5 65.237 68.417a1.748 1.748 0 0 0-2.474 0L42.675 88.5a28.884 28.884 0 0 0-3.182-3.182l21.744-21.741a1.75 1.75 0 0 0 .513-1.237V48.114a26.01 26.01 0 0 0 4.5 0V62.34a1.75 1.75 0 0 0 .513 1.237l21.743 21.744a28.8 28.8 0 0 0-3.181 3.179zm18.56 35.991a20.309 20.309 0 0 1-11.363-3.433v-4.335a3.924 3.924 0 0 1 3.92-3.92h15.148a3.924 3.924 0 0 1 3.92 3.92v4.154a20.273 20.273 0 0 1-11.625 3.623zm15.125-6.609v-1.159a7.428 7.428 0 0 0-7.42-7.42H96.442a7.428 7.428 0 0 0-7.42 7.42v1.426a20.6 20.6 0 1 1 29.988-.267z" fill="#ffffff" opacity="1" data-original="#000000"></path><path d="M104.016 88.506a8.847 8.847 0 1 0 8.847 8.847 8.857 8.857 0 0 0-8.847-8.847zm0 14.194a5.347 5.347 0 1 1 5.347-5.347 5.353 5.353 0 0 1-5.347 5.347zM64.131 26.425a8.847 8.847 0 1 0-8.846-8.847 8.857 8.857 0 0 0 8.846 8.847zm0-14.194a5.347 5.347 0 1 1-5.346 5.347 5.353 5.353 0 0 1 5.346-5.347z" fill="#ffffff" opacity="1" data-original="#000000"></path></g></svg>