<svg xmlns="http://www.w3.org/2000/svg" version="1.1" xmlns:xlink="http://www.w3.org/1999/xlink" width="512" height="512" x="0" y="0" viewBox="0 0 24 24" style="enable-background:new 0 0 512 512" xml:space="preserve"><g><path d="M23.5 9a.5.5 0 0 0-.5.5v8.854a.638.638 0 0 1-.342.571.637.637 0 0 1-.665-.031l-4.215-2.811c-.088-.034-.172-.088-.277-.084h-7c-1.93 0-3.5-1.57-3.5-3.5V4.5c0-1.93 1.57-3.5 3.5-3.5h4a.5.5 0 0 0 0-1h-4c-2.31 0-4.197 1.756-4.449 4H4.501A4.506 4.506 0 0 0 0 8.5v13.854a1.645 1.645 0 0 0 1.649 1.645c.388 0 .637-.09.913-.273l4.089-2.727H13.5a4.505 4.505 0 0 0 4.412-3.625l3.526 2.351a1.643 1.643 0 0 0 1.692.081c.537-.287.87-.845.87-1.453V9.5a.5.5 0 0 0-.5-.5zm-10 11h-7a.496.496 0 0 0-.277.084l-4.215 2.811a.637.637 0 0 1-.665.031.638.638 0 0 1-.342-.571V8.5c0-1.93 1.57-3.5 3.5-3.5h1.5v7.5c0 2.481 2.019 4.5 4.5 4.5h6.449c-.245 1.692-1.691 3-3.449 3zM20 8c2.206 0 4-1.794 4-4s-1.794-4-4-4-4 1.794-4 4 1.794 4 4 4zm0-7c1.654 0 3 1.346 3 3s-1.346 3-3 3-3-1.346-3-3 1.346-3 3-3z" fill="#ffffff" opacity="1" data-original="#000000"></path></g></svg>