<svg xmlns="http://www.w3.org/2000/svg" version="1.1" xmlns:xlink="http://www.w3.org/1999/xlink" width="512" height="512" x="0" y="0" viewBox="0 0 30 30" style="enable-background:new 0 0 512 512" xml:space="preserve" class=""><g><g fill="#000" fill-rule="evenodd" transform="translate(0 2)"><path d="M11.79 16.43c.093.386.222.761.387 1.12L9.99 20.662a.5.5 0 0 0 .517.776l4.083-.91c1.442 1.156 3.763 1.972 6.172 1.972 5.025 0 9.136-3.332 9.136-7.5s-4.11-7.5-9.136-7.5c-.453 0-.899.027-1.335.08.075.322.125.653.148.989.387-.046.784-.069 1.187-.069 4.514 0 8.136 2.936 8.136 6.5s-3.622 6.5-8.136 6.5c-2.186 0-4.23-.693-5.746-1.901a.5.5 0 0 0-.42-.097l-3.041.678 1.602-2.276a.5.5 0 0 0 .04-.51 5.5 5.5 0 0 1-.416-1.125c-.324.068-.654.122-.99.16z" fill="#2295dd" opacity="1" data-original="#000000"></path><path d="m19.963 11.928 2.448 3.59a.5.5 0 0 1-.525.77l-4.526-1.042c-1.842 1.44-4.255 2.254-6.817 2.254C5.013 17.5.498 13.716.498 9S5.013.5 10.543.5 20.59 4.284 20.59 9c0 1.114-.255 2.188-.626 2.928zM10.543 1.5C5.53 1.5 1.498 4.88 1.498 9s4.032 7.5 9.045 7.5c2.425 0 4.694-.795 6.377-2.183a.5.5 0 0 1 .43-.102l3.505.805-1.868-2.749a.5.5 0 0 1-.038-.498c.421-.875.64-1.811.64-2.773 0-4.12-4.032-7.5-9.046-7.5z" fill="#2295dd" opacity="1" data-original="#000000"></path><circle cx="6" cy="9" r="1" fill="#2295dd" opacity="1" data-original="#000000"></circle><circle cx="10.5" cy="9" r="1" fill="#2295dd" opacity="1" data-original="#000000"></circle><circle cx="15" cy="9" r="1" fill="#2295dd" opacity="1" data-original="#000000"></circle></g></g></svg>