<svg xmlns="http://www.w3.org/2000/svg" version="1.1" xmlns:xlink="http://www.w3.org/1999/xlink" width="512" height="512" x="0" y="0" viewBox="0 0 512 512" style="enable-background:new 0 0 512 512" xml:space="preserve" class=""><g><path d="M406 303h-85.9c-1.1 0-2.2.5-2.9 1.3s-1.1 1.9-1.1 3c.8 10 3.3 20.4 7.9 31.8.9 2.3 1.4 4.8 1.4 7.4 0 5.9-2.6 11.5-7.2 15.3s-10.7 5.3-16.7 4.1c-7.7-1.5-13.9-7.7-15.4-15.4-.8-4.1-.4-8.2 1.2-11.9 4.8-11.1 7.3-21.4 7.8-31.4.1-1.1-.3-2.2-1.1-3s-1.8-1.2-2.9-1.2H209v-77.7c7.7.9 15.8 3.1 24.4 6.8 5.2 2.3 10.9 2.9 16.6 1.7 10.8-2.1 19.6-10.9 21.7-21.8 1.6-8.3-.5-16.8-5.8-23.3s-13.1-10.2-21.5-10.2c-3.6 0-7 .7-10.3 2-9 3.6-17.3 5.9-25.1 6.9V106c0-2.2-1.8-4-4-4H35.9C16.1 102 0 118.1 0 137.9v338.2C0 495.9 16.1 512 35.9 512h338.2c19.8 0 35.9-16.1 35.9-35.9V307c0-2.3-1.8-4-4-4zM35.9 110H201v82c0 1.1.5 2.2 1.3 2.9s1.9 1.2 3 1.1c10-.8 20.4-3.3 31.8-7.9 2.3-.9 4.8-1.4 7.3-1.4 5.9 0 11.5 2.6 15.3 7.2s5.3 10.7 4.1 16.7c-1.5 7.7-7.7 13.9-15.4 15.4-4.1.8-8.2.4-11.9-1.2-11.1-4.8-21.4-7.3-31.4-7.8-1.1 0-2.2.3-3 1.1s-1.2 1.8-1.2 2.9v82h-77.7c.9-7.7 3.1-15.8 6.8-24.4 2.3-5.2 2.9-11 1.7-16.6-2.1-10.8-10.9-19.6-21.8-21.7-8.3-1.6-16.8.5-23.3 5.8s-10.2 13.1-10.2 21.5c0 3.6.7 7 2 10.3 3.6 9 5.9 17.3 6.9 25.1H8V137.9C8 122.5 20.5 110 35.9 110zM8 476.1V311h82c1.1 0 2.2-.5 2.9-1.3s1.1-1.9 1.1-3c-.8-10-3.4-20.4-7.9-31.8-.9-2.3-1.4-4.8-1.4-7.4 0-5.9 2.6-11.5 7.2-15.3s10.7-5.3 16.7-4.1c7.7 1.5 13.9 7.7 15.4 15.4.8 4 .4 8.1-1.2 11.9-4.8 11.1-7.3 21.4-7.8 31.4-.1 1.1.3 2.2 1.1 3s1.8 1.2 2.9 1.2h82v77.7c-7.7-.9-15.8-3.1-24.4-6.8-5.2-2.3-10.9-2.9-16.6-1.7-10.8 2.1-19.6 10.9-21.7 21.8-1.6 8.3.5 16.8 5.8 23.3s13.1 10.2 21.5 10.2c3.6 0 7.1-.7 10.3-2 9-3.6 17.3-5.9 25.1-6.9V504H35.9C20.5 504 8 491.4 8 476.1zm394 0c0 15.4-12.5 27.9-27.9 27.9H209v-82c0-1.1-.5-2.2-1.3-2.9s-1.9-1.1-3-1.1c-10 .8-20.4 3.3-31.8 7.9-2.3.9-4.8 1.4-7.4 1.4-5.9 0-11.5-2.6-15.3-7.2s-5.3-10.7-4.1-16.7c1.5-7.7 7.7-13.9 15.4-15.4 4.1-.8 8.2-.4 11.9 1.2 11.1 4.8 21.4 7.3 31.4 7.8 1.1.1 2.2-.3 3-1.1s1.2-1.8 1.2-2.9v-82h77.8c-.9 7.8-3.1 15.8-6.8 24.4-2.3 5.2-2.9 10.9-1.7 16.6 2.1 10.8 10.9 19.6 21.8 21.7 8.4 1.6 16.8-.5 23.3-5.8s10.2-13.1 10.2-21.5c0-3.6-.7-7-2-10.3-3.6-9-5.9-17.3-6.9-25.1H402z" fill="#2295dd" opacity="1" data-original="#000000"></path><path d="m511.8 187.6-48.5-162c-5.7-19-25.7-29.8-44.7-24.1L256.6 50c-2.1.6-3.3 2.9-2.7 5l24.6 82.3c.3 1.1 1.1 2 2.1 2.4 1 .5 2.2.5 3.2.1 9.3-3.6 18.6-9.1 28.2-16.7 2-1.6 4.2-2.7 6.6-3.5 5.7-1.7 11.8-.8 16.7 2.5 5 3.3 8.1 8.7 8.7 14.8.8 7.8-3.4 15.6-10.3 19.2-3.6 2-7.7 2.7-11.7 2.2-12-1.4-22.6-.9-32.3 1.5-1.1.3-2 .9-2.5 1.9-.5.9-.7 2.1-.4 3.1l24.7 82.5c.6 2.1 2.9 3.3 5 2.7l78.3-23.4c1.4 7.7 1.5 16 .4 25.4-.7 5.6.4 11.3 3.1 16.4 4.7 9 14.3 14.7 24.4 14.7.9 0 1.8 0 2.6-.1 8.5-.8 16-5.3 20.7-12.2s6-15.5 3.6-23.5c-1-3.4-2.7-6.6-4.9-9.3-6-7.6-10.6-14.8-13.8-22.1l78.1-23.4c1-.3 1.9-1 2.4-1.9.6-.9.7-1.9.4-3zm-87.3 22c-1.1.3-2 1.1-2.4 2.1-.5 1-.5 2.2-.1 3.2 3.6 9.3 9.1 18.6 16.7 28.2 1.6 2 2.7 4.2 3.5 6.6 1.7 5.7.8 11.8-2.5 16.7-3.3 5-8.7 8.1-14.8 8.7-7.8.8-15.6-3.4-19.2-10.3-1.9-3.6-2.7-7.7-2.2-11.7 1.4-12 .9-22.6-1.5-32.3-.3-1.1-.9-2-1.9-2.5-.6-.3-1.3-.5-2-.5-.4 0-.8.1-1.1.2l-78.6 23.5-22.6-74.5c7.7-1.4 16-1.5 25.4-.4 5.6.7 11.3-.4 16.4-3.1 9.8-5.1 15.6-16 14.5-27.1-.8-8.5-5.3-16-12.2-20.7s-15.5-6-23.5-3.6c-3.4 1-6.6 2.7-9.3 4.9-7.6 6-14.8 10.6-22.1 13.8l-22.2-74.3L420.9 9.2c14.7-4.4 30.3 4 34.7 18.7L503 186.1z" fill="#2295dd" opacity="1" data-original="#000000"></path></g></svg>