<!DOCTYPE svg PUBLIC "-//W3C//DTD SVG 1.1//EN" "http://www.w3.org/Graphics/SVG/1.1/DTD/svg11.dtd">
<!-- Uploaded to: SVG Repo, www.svgrepo.com, Transformed by: SVG Repo Mixer Tools -->
<svg fill="#2295DD" width="800px" height="800px" viewBox="0 0 512 512" xmlns="http://www.w3.org/2000/svg" stroke="#2295DD">
<g id="SVGRepo_bgCarrier" stroke-width="0"/>
<g id="SVGRepo_tracerCarrier" stroke-linecap="round" stroke-linejoin="round"/>
<g id="SVGRepo_iconCarrier">
<title>ionicons-v5-a</title>
<path d="M464,256c0-114.87-93.13-208-208-208S48,141.13,48,256s93.13,208,208,208S464,370.87,464,256ZM251.35,347.36a16,16,0,0,1-.09-22.63L303.58,272H170a16,16,0,0,1,0-32H303.58l-52.32-52.73A16,16,0,1,1,274,164.73l79.39,80a16,16,0,0,1,0,22.54l-79.39,80A16,16,0,0,1,251.35,347.36Z"/>
</g>
</svg>