<svg xmlns="http://www.w3.org/2000/svg" version="1.1" xmlns:xlink="http://www.w3.org/1999/xlink" width="512" height="512" x="0" y="0" viewBox="0 0 176 176" style="enable-background:new 0 0 512 512" xml:space="preserve"><g><path d="M152 0H24A24 24 0 0 0 0 24v128a24 24 0 0 0 24 24h128a24 24 0 0 0 24-24V24a24 24 0 0 0-24-24zM60.58 109.67H35.85L49 88l5.69-9.41-13.85-25.86h24.72L79.4 78.59 73.7 88zM127 143h-26l-25.23-42.63 7-12.37 31.33-55h26.05l-31.29 55-7 12.37z" data-name="Layer 2" fill="#2295dd" opacity="1" data-original="#000000"></path></g></svg>