<svg xmlns="http://www.w3.org/2000/svg" version="1.1" xmlns:xlink="http://www.w3.org/1999/xlink" width="512" height="512" x="0" y="0" viewBox="0 0 24 24" style="enable-background:new 0 0 512 512" xml:space="preserve" class=""><g><path d="M7.339 14.699a1.19 1.19 0 0 0-.339.842c0 .321.128.624.357.851l2.478 2.237a.5.5 0 1 1-.67.742l-2.494-2.253a2.197 2.197 0 0 1-.026-3.137l2.515-2.346a.5.5 0 0 1 .682.73L7.34 14.699zM24 5.5v13c0 2.481-2.019 4.5-4.5 4.5h-15A4.505 4.505 0 0 1 0 18.5v-13C0 3.019 2.019 1 4.5 1h15C21.981 1 24 3.019 24 5.5zm-23 0V8h22V5.5C23 3.57 21.43 2 19.5 2h-15C2.57 2 1 3.57 1 5.5zm22 13V9H1v9.5C1 20.43 2.57 22 4.5 22h15c1.93 0 3.5-1.57 3.5-3.5zM4 6a1 1 0 1 0 0-2 1 1 0 0 0 0 2zm3 0a1 1 0 1 0 0-2 1 1 0 0 0 0 2zm3 0a1 1 0 1 0 0-2 1 1 0 0 0 0 2zm4.841 5.635a.5.5 0 0 0-.682.73l2.489 2.322c.228.228.353.531.352.854 0 .321-.128.624-.341.835l-2.494 2.253a.5.5 0 1 0 .67.742l2.511-2.269c.42-.415.652-.969.654-1.559s-.227-1.146-.657-1.575l-2.502-2.334z" fill="#ffffff" opacity="1" data-original="#000000"></path></g></svg>