<svg xmlns="http://www.w3.org/2000/svg" version="1.1" xmlns:xlink="http://www.w3.org/1999/xlink" width="512" height="512" x="0" y="0" viewBox="0 0 24 24" style="enable-background:new 0 0 512 512" xml:space="preserve" class=""><g><path d="M24 8.5v7c0 2.481-2.019 4.5-4.5 4.5h-7v3H16a.5.5 0 0 1 0 1H8a.5.5 0 0 1 0-1h3.5v-3h-7A4.505 4.505 0 0 1 0 15.5v-9C0 4.019 2.019 2 4.5 2h10a.5.5 0 0 1 0 1h-10C2.57 3 1 4.57 1 6.5v9C1 17.43 2.57 19 4.5 19h15c1.93 0 3.5-1.57 3.5-3.5v-7a.5.5 0 0 1 1 0Zm-12.758 1.529C19.095.891 19.129.855 19.146.838a2.869 2.869 0 0 1 4.052.002 2.874 2.874 0 0 1 0 4.052l-8.221 8.826a3.451 3.451 0 0 1-.897 2.145 3.508 3.508 0 0 1-2.582 1.138h-4c-.485 0-.928-.224-1.214-.612a1.495 1.495 0 0 1-.225-1.343c.5-1.61 2.039-4.469 4.632-4.97.182-.035.366-.039.549-.046Zm1.19.15c.421.126.826.311 1.186.581a3.43 3.43 0 0 1 1.202 1.658l2.065-2.216a3.013 3.013 0 0 0-2.596-2.184l-1.857 2.161Zm1.557 3.09c-.06-.674-.405-1.281-.974-1.71a2.692 2.692 0 0 0-2.133-.502c-2.13.411-3.433 2.886-3.867 4.284a.505.505 0 0 0 .484.658h4c.7 0 1.372-.296 1.845-.812a2.484 2.484 0 0 0 .645-1.918Zm1.05-6.124a4.038 4.038 0 0 1 2.61 2.237l4.829-5.184c.737-.74.737-1.924.012-2.652a1.866 1.866 0 0 0-2.637 0l-4.814 5.6Z" fill="#ffffff" opacity="1" data-original="#000000"></path></g></svg>