<svg xmlns="http://www.w3.org/2000/svg" version="1.1" xmlns:xlink="http://www.w3.org/1999/xlink" width="512" height="512" x="0" y="0" viewBox="0 0 24 24" style="enable-background:new 0 0 512 512" xml:space="preserve" class=""><g><path d="M23.235 8.817c-1.565-4.206-5.432-7.243-9.85-7.739-3.468-.387-6.801.667-9.381 2.973A12.02 12.02 0 0 0 0 13c0 3.073 1.261 6.138 3.459 8.408C4.438 22.42 5.85 23 7.333 23h9.332c1.488 0 2.908-.587 3.896-1.611 3.271-3.396 4.297-8.213 2.674-12.571Zm-3.394 11.877c-.801.83-1.959 1.306-3.177 1.306H7.333c-1.214 0-2.364-.469-3.155-1.287C2.158 18.627 1 15.816 1 13c0-3.128 1.338-6.117 3.672-8.204a10.873 10.873 0 0 1 7.312-2.797c.427 0 .857.024 1.291.073 4.046.454 7.588 3.238 9.023 7.095 1.487 3.994.546 8.411-2.456 11.527ZM17.853 7.146a.5.5 0 0 0-.707 0l-4.137 4.137A1.974 1.974 0 0 0 12 10.999c-1.103 0-2 .897-2 2s.897 2 2 2 2-.897 2-2c0-.37-.108-.712-.284-1.009l4.137-4.137a.5.5 0 0 0 0-.707ZM11.999 14a1 1 0 1 1 0-2 1 1 0 0 1 0 2Zm7.334-4.2a7.944 7.944 0 0 1 .666 3.2 7.986 7.986 0 0 1-2.038 5.334.502.502 0 0 1-.706.038.5.5 0 0 1-.038-.706A6.984 6.984 0 0 0 18.999 13c0-.974-.196-1.915-.582-2.8a.5.5 0 0 1 .916-.4ZM11.999 6c-3.859 0-7 3.141-7 7 0 1.726.633 3.383 1.782 4.666a.5.5 0 1 1-.744.668A7.986 7.986 0 0 1 3.999 13c0-4.411 3.589-8 8-8 1.112 0 2.188.224 3.2.666a.5.5 0 0 1-.4.916 6.958 6.958 0 0 0-2.8-.582Z" fill="#ffffff" opacity="1" data-original="#000000" class=""></path></g></svg>