<svg xmlns="http://www.w3.org/2000/svg" version="1.1" xmlns:xlink="http://www.w3.org/1999/xlink" width="512" height="512" x="0" y="0" viewBox="0 0 24 24" style="enable-background:new 0 0 512 512" xml:space="preserve" class=""><g><path d="M1 15.5c0 .83.67 1.5 1.5 1.5h9c.28 0 .5.22.5.5s-.22.5-.5.5h-9a2.5 2.5 0 0 1-.5-4.95V4.5C2 2.02 4.02 0 6.5 0h11C19.98 0 22 2.02 22 4.5v2c0 .28-.22.5-.5.5s-.5-.22-.5-.5v-2C21 2.57 19.43 1 17.5 1h-11C4.57 1 3 2.57 3 4.5V13h5.5c.13 0 .26.05.35.15l.85.85h1.79c.28 0 .5.22.5.5s-.22.5-.5.5h-2a.47.47 0 0 1-.35-.15L8.29 14H2.5c-.83 0-1.5.67-1.5 1.5Zm23-3v8c0 1.93-1.57 3.5-3.5 3.5h-3c-1.93 0-3.5-1.57-3.5-3.5v-8c0-1.93 1.57-3.5 3.5-3.5h3c1.93 0 3.5 1.57 3.5 3.5Zm-1 0a2.5 2.5 0 0 0-2.5-2.5h-3a2.5 2.5 0 0 0-2.5 2.5v8a2.5 2.5 0 0 0 2.5 2.5h3a2.5 2.5 0 0 0 2.5-2.5v-8Z" fill="#ffffff" opacity="1" data-original="#000000" class=""></path></g></svg>