<svg xmlns="http://www.w3.org/2000/svg" version="1.1" xmlns:xlink="http://www.w3.org/1999/xlink" width="512" height="512" x="0" y="0" viewBox="0 0 24 24" style="enable-background:new 0 0 512 512" xml:space="preserve" class=""><g><path d="M23.433 4.915A2.491 2.491 0 0 0 21.499 4H4.49l-.256-1.843A2.51 2.51 0 0 0 1.758 0H.5a.5.5 0 0 0 0 1h1.259c.745 0 1.383.556 1.485 1.294l1.781 12.825A4.52 4.52 0 0 0 9.482 19H19.5a.5.5 0 0 0 0-1H9.482a3.515 3.515 0 0 1-3.462-3h12.64a4.51 4.51 0 0 0 4.412-3.617l.879-4.393a2.49 2.49 0 0 0-.519-2.075Zm-.462 1.879-.879 4.393A3.51 3.51 0 0 1 18.66 14H5.879l-1.25-9h16.87a1.5 1.5 0 0 1 1.472 1.794ZM7 20c-1.103 0-2 .897-2 2s.897 2 2 2 2-.897 2-2-.897-2-2-2Zm0 3a1.001 1.001 0 0 1 0-2 1.001 1.001 0 0 1 0 2Zm10-3c-1.103 0-2 .897-2 2s.897 2 2 2 2-.897 2-2-.897-2-2-2Zm0 3a1.001 1.001 0 0 1 0-2 1.001 1.001 0 0 1 0 2Z" fill="#ffffff" opacity="1" data-original="#000000" class=""></path></g></svg>