<svg xmlns="http://www.w3.org/2000/svg" version="1.1" xmlns:xlink="http://www.w3.org/1999/xlink" width="512" height="512" x="0" y="0" viewBox="0 0 24 24" style="enable-background:new 0 0 512 512" xml:space="preserve" class=""><g><path d="M6 10c2.075 0 3-.925 3-3s-.925-3-3-3-3 .925-3 3 .925 3 3 3zm0-5c1.514 0 2 .486 2 2s-.486 2-2 2-2-.486-2-2 .486-2 2-2zm11.5 7c-3.855 0-5.5 1.645-5.5 5.5s1.645 5.5 5.5 5.5 5.5-1.645 5.5-5.5-1.645-5.5-5.5-5.5zm0 10c-3.28 0-4.5-1.22-4.5-4.5s1.22-4.5 4.5-4.5 4.5 1.22 4.5 4.5-1.22 4.5-4.5 4.5zm2.853-6.384a.5.5 0 0 1 .062.705 19.487 19.487 0 0 1-3.248 3.079.501.501 0 0 1-.6 0 19.594 19.594 0 0 1-1.95-1.674.5.5 0 0 1 .7-.715c.488.479 1.008.935 1.55 1.358a18.537 18.537 0 0 0 2.782-2.691.5.5 0 0 1 .704-.062zm-9.365-.139a.5.5 0 1 1-.999.046C9.87 12.955 8.789 12 6 12s-3.871.955-3.989 3.523c-.012.275-.245.513-.522.476a.5.5 0 0 1-.477-.522C1.156 12.381 2.694 11 6 11s4.845 1.381 4.988 4.477zM15 7c2.075 0 3-.925 3-3s-.925-3-3-3-3 .925-3 3 .925 3 3 3zm0-5c1.514 0 2 .486 2 2s-.486 2-2 2-2-.486-2-2 .486-2 2-2zm0 7c-2.034 0-3.12.508-3.631 1.697a.5.5 0 0 1-.919-.394C11.125 8.732 12.571 8 15 8c2.125 0 3.473.549 4.243 1.727a.5.5 0 1 1-.837.546C17.838 9.404 16.756 9 15 9z" fill="#ffffff" opacity="1" data-original="#000000"></path></g></svg>