<svg width="387" height="80" viewBox="0 0 387 80" fill="none" xmlns="http://www.w3.org/2000/svg">
<path d="M122.096 66.864C118.208 66.864 114.584 66.24 111.224 64.992C107.912 63.696 105.032 61.872 102.584 59.52C100.136 57.168 98.216 54.408 96.824 51.24C95.48 48.072 94.808 44.592 94.808 40.8C94.808 37.008 95.48 33.528 96.824 30.36C98.216 27.192 100.136 24.432 102.584 22.08C105.08 19.728 107.984 17.928 111.296 16.68C114.608 15.384 118.232 14.736 122.168 14.736C126.536 14.736 130.472 15.504 133.976 17.04C137.528 18.528 140.504 20.736 142.904 23.664L135.416 30.576C133.688 28.608 131.768 27.144 129.656 26.184C127.544 25.176 125.24 24.672 122.744 24.672C120.392 24.672 118.232 25.056 116.264 25.824C114.296 26.592 112.592 27.696 111.152 29.136C109.712 30.576 108.584 32.28 107.768 34.248C107 36.216 106.616 38.4 106.616 40.8C106.616 43.2 107 45.384 107.768 47.352C108.584 49.32 109.712 51.024 111.152 52.464C112.592 53.904 114.296 55.008 116.264 55.776C118.232 56.544 120.392 56.928 122.744 56.928C125.24 56.928 127.544 56.448 129.656 55.488C131.768 54.48 133.688 52.968 135.416 50.952L142.904 57.864C140.504 60.792 137.528 63.024 133.976 64.56C130.472 66.096 126.512 66.864 122.096 66.864Z" fill="black"/>
<path d="M168.616 66.576C164.488 66.576 160.816 65.712 157.6 63.984C154.432 62.256 151.912 59.904 150.04 56.928C148.216 53.904 147.304 50.472 147.304 46.632C147.304 42.744 148.216 39.312 150.04 36.336C151.912 33.312 154.432 30.96 157.6 29.28C160.816 27.552 164.488 26.688 168.616 26.688C172.696 26.688 176.344 27.552 179.56 29.28C182.776 30.96 185.296 33.288 187.12 36.264C188.944 39.24 189.856 42.696 189.856 46.632C189.856 50.472 188.944 53.904 187.12 56.928C185.296 59.904 182.776 62.256 179.56 63.984C176.344 65.712 172.696 66.576 168.616 66.576ZM168.616 57.36C170.488 57.36 172.168 56.928 173.656 56.064C175.144 55.2 176.32 53.976 177.184 52.392C178.048 50.76 178.48 48.84 178.48 46.632C178.48 44.376 178.048 42.456 177.184 40.872C176.32 39.288 175.144 38.064 173.656 37.2C172.168 36.336 170.488 35.904 168.616 35.904C166.744 35.904 165.064 36.336 163.576 37.2C162.088 38.064 160.888 39.288 159.976 40.872C159.112 42.456 158.68 44.376 158.68 46.632C158.68 48.84 159.112 50.76 159.976 52.392C160.888 53.976 162.088 55.2 163.576 56.064C165.064 56.928 166.744 57.36 168.616 57.36Z" fill="black"/>
<path d="M320.408 66.576C315.992 66.576 312.104 65.712 308.744 63.984C305.432 62.256 302.864 59.904 301.04 56.928C299.216 53.904 298.304 50.472 298.304 46.632C298.304 42.744 299.192 39.312 300.968 36.336C302.792 33.312 305.264 30.96 308.384 29.28C311.504 27.552 315.032 26.688 318.968 26.688C322.76 26.688 326.168 27.504 329.192 29.136C332.264 30.72 334.688 33.024 336.464 36.048C338.24 39.024 339.128 42.6 339.128 46.776C339.128 47.208 339.104 47.712 339.056 48.288C339.008 48.816 338.96 49.32 338.912 49.8H307.448V43.248H333.008L328.688 45.192C328.688 43.176 328.28 41.424 327.464 39.936C326.648 38.448 325.52 37.296 324.08 36.48C322.64 35.616 320.96 35.184 319.04 35.184C317.12 35.184 315.416 35.616 313.928 36.48C312.488 37.296 311.36 38.472 310.544 40.008C309.728 41.496 309.32 43.272 309.32 45.336V47.064C309.32 49.176 309.776 51.048 310.688 52.68C311.648 54.264 312.968 55.488 314.648 56.352C316.376 57.168 318.392 57.576 320.696 57.576C322.76 57.576 324.56 57.264 326.096 56.64C327.68 56.016 329.12 55.08 330.416 53.832L336.392 60.312C334.616 62.328 332.384 63.888 329.696 64.992C327.008 66.048 323.912 66.576 320.408 66.576Z" fill="#A80202"/>
<path d="M363.816 66.576C360.168 66.576 356.88 65.76 353.952 64.128C351.024 62.448 348.696 60.12 346.968 57.144C345.288 54.168 344.448 50.664 344.448 46.632C344.448 42.552 345.288 39.024 346.968 36.048C348.696 33.072 351.024 30.768 353.952 29.136C356.88 27.504 360.168 26.688 363.816 26.688C367.08 26.688 369.936 27.408 372.384 28.848C374.832 30.288 376.728 32.472 378.072 35.4C379.416 38.328 380.088 42.072 380.088 46.632C380.088 51.144 379.44 54.888 378.144 57.864C376.848 60.792 374.976 62.976 372.528 64.416C370.128 65.856 367.224 66.576 363.816 66.576ZM365.76 57.36C367.584 57.36 369.24 56.928 370.728 56.064C372.216 55.2 373.392 53.976 374.256 52.392C375.168 50.76 375.624 48.84 375.624 46.632C375.624 44.376 375.168 42.456 374.256 40.872C373.392 39.288 372.216 38.064 370.728 37.2C369.24 36.336 367.584 35.904 365.76 35.904C363.888 35.904 362.208 36.336 360.72 37.2C359.232 38.064 358.032 39.288 357.12 40.872C356.256 42.456 355.824 44.376 355.824 46.632C355.824 48.84 356.256 50.76 357.12 52.392C358.032 53.976 359.232 55.2 360.72 56.064C362.208 56.928 363.888 57.36 365.76 57.36ZM375.912 66V58.08L376.128 46.56L375.408 35.112V12.576H386.64V66H375.912Z" fill="black"/>
<path d="M0 10C0 4.47715 4.47715 0 10 0H70C75.5229 0 80 4.47715 80 10V70C80 75.5229 75.5229 80 70 80H10C4.47715 80 0 75.5229 0 70V10Z" fill="#A80202"/>
<path d="M15.6654 41.8085L24.7565 51.786C24.9662 52.0242 25.217 52.2143 25.4943 52.345C25.7715 52.4757 26.0698 52.5445 26.3716 52.5474C26.6733 52.5503 26.9726 52.4872 27.2519 52.3618C27.5312 52.2363 27.785 52.0511 27.9984 51.8169C28.2118 51.5827 28.3805 51.3042 28.4948 50.9977C28.6091 50.6911 28.6666 50.3626 28.664 50.0314C28.6614 49.7002 28.5987 49.3729 28.4796 49.0686C28.3604 48.7643 28.1873 48.489 27.9702 48.2589L20.486 40.0449L27.9702 31.8309C28.1873 31.6008 28.3604 31.3256 28.4796 31.0213C28.5987 30.7169 28.6614 30.3896 28.664 30.0584C28.6666 29.7272 28.6091 29.3987 28.4948 29.0922C28.3805 28.7856 28.2118 28.5071 27.9984 28.2729C27.785 28.0387 27.5312 27.8535 27.2519 27.7281C26.9726 27.6027 26.6733 27.5396 26.3716 27.5424C26.0698 27.5453 25.7715 27.6141 25.4943 27.7449C25.217 27.8756 24.9662 28.0656 24.7565 28.3039L15.6654 38.2814C15.2394 38.7492 15 39.3835 15 40.0449C15 40.7063 15.2394 41.3407 15.6654 41.8085ZM55.2435 28.3039C55.0338 28.0656 54.783 27.8756 54.5057 27.7449C54.2285 27.6141 53.9302 27.5453 53.6284 27.5424C53.3267 27.5396 53.0274 27.6027 52.7481 27.7281C52.4688 27.8535 52.215 28.0387 52.0016 28.2729C51.7882 28.5071 51.6194 28.7856 51.5052 29.0922C51.3909 29.3987 51.3334 29.7272 51.336 30.0584C51.3386 30.3896 51.4013 30.7169 51.5204 31.0213C51.6396 31.3256 51.8127 31.6008 52.0298 31.8309L59.514 40.0449L52.0298 48.2589C51.8127 48.489 51.6396 48.7643 51.5204 49.0686C51.4013 49.3729 51.3386 49.7002 51.336 50.0314C51.3334 50.3626 51.3909 50.6911 51.5052 50.9977C51.6194 51.3042 51.7882 51.5827 52.0016 51.8169C52.215 52.0511 52.4688 52.2363 52.7481 52.3618C53.0274 52.4872 53.3267 52.5503 53.6284 52.5474C53.9302 52.5445 54.2285 52.4757 54.5057 52.345C54.783 52.2143 55.0338 52.0242 55.2435 51.786L64.3346 41.8085C64.7606 41.3407 65 40.7063 65 40.0449C65 39.3835 64.7606 38.7492 64.3346 38.2814L55.2435 28.3039ZM42.3614 21.9008L33.2703 56.8222C33.1048 57.4579 33.1761 58.1398 33.4684 58.7179C33.7608 59.296 34.2503 59.723 34.8294 59.9052C35.0331 59.9669 35.2432 59.9988 35.4545 60C35.9484 59.9996 36.4287 59.8226 36.8228 59.4959C37.2169 59.1691 37.5033 58.7104 37.6386 58.1891L46.7297 23.2677C46.8244 22.9488 46.8596 22.6122 46.8331 22.278C46.8066 21.9439 46.7189 21.619 46.5754 21.3228C46.4318 21.0267 46.2353 20.7654 45.9977 20.5545C45.76 20.3437 45.486 20.1876 45.1921 20.0956C44.8981 20.0036 44.5903 19.9777 44.2871 20.0192C43.9838 20.0608 43.6913 20.1691 43.427 20.3377C43.1628 20.5062 42.9322 20.7315 42.7491 21.0001C42.566 21.2686 42.4341 21.575 42.3614 21.9008Z" fill="white"/>
<path d="M248.976 66V15.6H270.792C275.304 15.6 279.192 16.344 282.456 17.832C285.72 19.272 288.24 21.36 290.016 24.096C291.792 26.832 292.68 30.096 292.68 33.888C292.68 37.632 291.792 40.872 290.016 43.608C288.24 46.296 285.72 48.36 282.456 49.8C279.192 51.24 275.304 51.96 270.792 51.96H255.456L260.64 46.848V66H248.976ZM281.016 66L268.416 47.712H280.872L293.616 66H281.016ZM260.64 48.144L255.456 42.672H270.144C273.744 42.672 276.432 41.904 278.208 40.368C279.984 38.784 280.872 36.624 280.872 33.888C280.872 31.104 279.984 28.944 278.208 27.408C276.432 25.872 273.744 25.104 270.144 25.104H255.456L260.64 19.56V48.144Z" fill="black"/>
<path d="M214.816 66.576C211.168 66.576 207.88 65.76 204.952 64.128C202.024 62.448 199.696 60.12 197.968 57.144C196.288 54.168 195.448 50.664 195.448 46.632C195.448 42.552 196.288 39.024 197.968 36.048C199.696 33.072 202.024 30.768 204.952 29.136C207.88 27.504 211.168 26.688 214.816 26.688C218.08 26.688 220.936 27.408 223.384 28.848C225.832 30.288 227.728 32.472 229.072 35.4C230.416 38.328 231.088 42.072 231.088 46.632C231.088 51.144 230.44 54.888 229.144 57.864C227.848 60.792 225.976 62.976 223.528 64.416C221.128 65.856 218.224 66.576 214.816 66.576ZM216.76 57.36C218.584 57.36 220.24 56.928 221.728 56.064C223.216 55.2 224.392 53.976 225.256 52.392C226.168 50.76 226.624 48.84 226.624 46.632C226.624 44.376 226.168 42.456 225.256 40.872C224.392 39.288 223.216 38.064 221.728 37.2C220.24 36.336 218.584 35.904 216.76 35.904C214.888 35.904 213.208 36.336 211.72 37.2C210.232 38.064 209.032 39.288 208.12 40.872C207.256 42.456 206.824 44.376 206.824 46.632C206.824 48.84 207.256 50.76 208.12 52.392C209.032 53.976 210.232 55.2 211.72 56.064C213.208 56.928 214.888 57.36 216.76 57.36ZM226.912 66V58.08L227.128 46.56L226.408 35.112V12.576H237.64V66H226.912Z" fill="black"/>
</svg>
