<svg width="80" height="80" viewBox="0 0 80 80" fill="none" xmlns="http://www.w3.org/2000/svg">
<path d="M0 10C0 4.47715 4.47715 0 10 0H70C75.5229 0 80 4.47715 80 10V70C80 75.5229 75.5229 80 70 80H10C4.47715 80 0 75.5229 0 70V10Z" fill="#A80202"/>
<path d="M15.6654 41.8085L24.7565 51.786C24.9662 52.0242 25.217 52.2143 25.4943 52.345C25.7715 52.4757 26.0698 52.5445 26.3716 52.5474C26.6733 52.5503 26.9726 52.4872 27.2519 52.3618C27.5312 52.2363 27.785 52.0511 27.9984 51.8169C28.2118 51.5827 28.3805 51.3042 28.4948 50.9977C28.6091 50.6911 28.6666 50.3626 28.664 50.0314C28.6614 49.7002 28.5987 49.3729 28.4796 49.0686C28.3604 48.7643 28.1873 48.489 27.9702 48.2589L20.486 40.0449L27.9702 31.8309C28.1873 31.6008 28.3604 31.3256 28.4796 31.0213C28.5987 30.7169 28.6614 30.3896 28.664 30.0584C28.6666 29.7272 28.6091 29.3987 28.4948 29.0922C28.3805 28.7856 28.2118 28.5071 27.9984 28.2729C27.785 28.0387 27.5312 27.8535 27.2519 27.7281C26.9726 27.6027 26.6733 27.5396 26.3716 27.5424C26.0698 27.5453 25.7715 27.6141 25.4943 27.7449C25.217 27.8756 24.9662 28.0656 24.7565 28.3039L15.6654 38.2814C15.2394 38.7492 15 39.3835 15 40.0449C15 40.7063 15.2394 41.3407 15.6654 41.8085ZM55.2435 28.3039C55.0338 28.0656 54.783 27.8756 54.5057 27.7449C54.2285 27.6141 53.9302 27.5453 53.6284 27.5424C53.3267 27.5396 53.0274 27.6027 52.7481 27.7281C52.4688 27.8535 52.215 28.0387 52.0016 28.2729C51.7882 28.5071 51.6194 28.7856 51.5052 29.0922C51.3909 29.3987 51.3334 29.7272 51.336 30.0584C51.3386 30.3896 51.4013 30.7169 51.5204 31.0213C51.6396 31.3256 51.8127 31.6008 52.0298 31.8309L59.514 40.0449L52.0298 48.2589C51.8127 48.489 51.6396 48.7643 51.5204 49.0686C51.4013 49.3729 51.3386 49.7002 51.336 50.0314C51.3334 50.3626 51.3909 50.6911 51.5052 50.9977C51.6194 51.3042 51.7882 51.5827 52.0016 51.8169C52.215 52.0511 52.4688 52.2363 52.7481 52.3618C53.0274 52.4872 53.3267 52.5503 53.6284 52.5474C53.9302 52.5445 54.2285 52.4757 54.5057 52.345C54.783 52.2143 55.0338 52.0242 55.2435 51.786L64.3346 41.8085C64.7606 41.3407 65 40.7063 65 40.0449C65 39.3835 64.7606 38.7492 64.3346 38.2814L55.2435 28.3039ZM42.3614 21.9008L33.2703 56.8222C33.1048 57.4579 33.1761 58.1398 33.4684 58.7179C33.7608 59.296 34.2503 59.723 34.8294 59.9052C35.0331 59.9669 35.2432 59.9988 35.4545 60C35.9484 59.9996 36.4287 59.8226 36.8228 59.4959C37.2169 59.1691 37.5033 58.7104 37.6386 58.1891L46.7297 23.2677C46.8244 22.9488 46.8596 22.6122 46.8331 22.278C46.8066 21.9439 46.7189 21.619 46.5754 21.3228C46.4318 21.0267 46.2353 20.7654 45.9977 20.5545C45.76 20.3437 45.486 20.1876 45.1921 20.0956C44.8981 20.0036 44.5903 19.9777 44.2871 20.0192C43.9838 20.0608 43.6913 20.1691 43.427 20.3377C43.1628 20.5062 42.9322 20.7315 42.7491 21.0001C42.566 21.2686 42.4341 21.575 42.3614 21.9008Z" fill="white"/>
</svg>
