<svg xmlns="http://www.w3.org/2000/svg" version="1.1" xmlns:xlink="http://www.w3.org/1999/xlink" width="512" height="512" x="0" y="0" viewBox="0 0 24 24" style="enable-background:new 0 0 512 512" xml:space="preserve" class=""><g><path d="M12 0C5.383 0 0 5.383 0 12s5.383 12 12 12 12-5.383 12-12S18.617 0 12 0Zm0 23C5.935 23 1 18.065 1 12S5.935 1 12 1s11 4.935 11 11-4.935 11-11 11Z" fill="#04729f" opacity="1" data-original="#000000" class=""></path><path d="M14.475 7.39c-.198-.198-.5-.475-.818-.756a2.5 2.5 0 0 0-3.312 0c-.318.282-.621.559-.815.753l-2.879 2.828a.5.5 0 1 0 .702.713l2.882-2.831c.187-.187.473-.448.774-.715.148-.131.316-.224.493-.286V17.5a.5.5 0 0 0 1 0V7.096c.177.063.345.155.493.286.301.266.587.527.777.717l2.879 2.828a.5.5 0 1 0 .702-.712L14.477 7.39Z" fill="#04729f" opacity="1" data-original="#000000" class=""></path></g></svg>